# xmcd
#
# Track frame offsets: 
#        150
#        10707
#        18960
#        25792
#        35465
#        44477
#
# Disc length: 975 seconds
#
# Revision: 0
# Processed by: cddbd v1.5PL3 Copyright (c) Steve Scherf et al.
# Submitted via: ExactAudioCopy v0.95a3
#
DISCID=3a03cd06
DTITLE=Jr.MONSTER - Monster's Spirits
DYEAR=2002
DGENRE=Rock
TTITLE0=Burn Out All
TTITLE1=Poor The Country
TTITLE2=Worst
TTITLE3=I Always Cheer You Up
TTITLE4=Punk Rock Is Also The Coolest
TTITLE5=Reveal Fuckin' Yourself
EXTD=
EXTT0=
EXTT1=
EXTT2=
EXTT3=
EXTT4=
EXTT5=
PLAYORDER=
